<?xml version="1.0" encoding="UTF-8"?>
<svg id="uuid-a1a3abad-6097-4553-a236-f39c96ff2655" data-name="Logo-vector" xmlns="http://www.w3.org/2000/svg" viewBox="0 0 425.28 185.28">
  <g id="uuid-09e83a46-27a9-40b0-aafc-1c334181a9c3" data-name="Big Letters">
    <polygon id="uuid-6742c1d4-dc5f-4cfc-ae62-69c17f87e462" data-name="T" points="114.621 72.695 114.864 114.216 124.7 114.216 124.7 72.695 139.34 72.695 139.342 64.294 99.742 64.296 99.742 72.695 114.621 72.695" fill="#231f20"/>
    <path id="uuid-2c3d1c34-de7a-44d0-bd8f-c5a0c9cec8d4" data-name="R" d="M208.241,63.06h26.056s14.178-.609,14.539,13.504c.35,13.718-13.317,14.551-13.317,14.551,5.722.722,17.111,21.968,17.111,21.968h-12.226c-12.125-22.262-16.852-20.854-16.852-20.854l-5.634-.222-.241,20.884-9.835-.005.399-49.826ZM217.997,71.192v12.889h14.815s6.259-.815,5.815-6.815-5.704-6.074-5.704-6.074h-14.926Z" fill="#231f20"/>
    <path id="uuid-96908c9c-eebf-4d0b-921a-d970fb55b1cc" data-name="D" d="M337.36,61.621s19.556-.519,19.778,24.926-18.444,24.926-18.444,24.926h-23.556l.296-49.852h21.926ZM325.36,69.992v33.407h11.407s10,.426,10-16.193c0-17.275-10.67-17.215-10.67-17.215h-10.738Z" fill="#231f20"/>
  </g>
  <path d="M331.968,46.702c-22.38,0-40.522,18.142-40.522,40.522s18.142,40.522,40.522,40.522,40.522-18.142,40.522-40.522-18.142-40.522-40.522-40.522ZM119.542,44.525c-22.678,0-41.062,18.814-41.062,42.023s18.384,42.023,41.062,42.023,41.062-18.814,41.062-42.023-18.384-42.023-41.062-42.023ZM227.404,48.433c-22.38,0-40.522,18.277-40.522,40.822s18.142,40.822,40.522,40.822,40.522-18.277,40.522-40.822-18.142-40.822-40.522-40.822Z" fill="none" stroke="#020202" stroke-miterlimit="10" stroke-width="5"/>
</svg>